<?xml version="1.0" standalone="no"?>
<!DOCTYPE svg PUBLIC "-//W3C//DTD SVG 20010904//EN"
 "http://www.w3.org/TR/2001/REC-SVG-20010904/DTD/svg10.dtd">
<svg version="1.0" xmlns="http://www.w3.org/2000/svg"
 width="1713.000000pt" height="1713.000000pt" viewBox="0 0 1713.000000 1713.000000"
 preserveAspectRatio="xMidYMid meet">
<metadata>
Created by potrace 1.14, written by Peter Selinger 2001-2017
</metadata>
<g transform="translate(0.000000,1713.000000) scale(0.100000,-0.100000)"
fill="#000000" stroke="none">
<path d="M4947 17089 c-23 -23 -37 -46 -37 -63 0 -36 34 -123 73 -184 19 -31
218 -238 469 -490 498 -499 507 -511 553 -687 15 -60 32 -139 37 -175 5 -36
15 -115 24 -176 8 -61 16 -120 18 -131 3 -11 7 -44 11 -74 3 -30 8 -61 10 -69
2 -8 7 -37 10 -65 3 -27 7 -57 10 -65 2 -8 6 -42 10 -75 3 -33 8 -67 10 -75 3
-13 80 -534 91 -615 2 -16 6 -46 9 -65 3 -19 8 -51 10 -70 2 -19 7 -52 11 -73
3 -20 7 -47 9 -60 12 -88 17 -124 20 -137 2 -8 7 -42 10 -75 4 -33 8 -67 10
-75 2 -8 7 -37 10 -65 4 -27 8 -57 10 -65 2 -8 7 -37 10 -65 3 -27 8 -61 10
-75 7 -39 30 -198 41 -280 3 -19 7 -46 9 -60 2 -14 7 -45 10 -70 3 -25 11 -74
16 -110 6 -36 13 -85 16 -110 4 -32 16 -58 42 -90 21 -25 46 -57 57 -71 10
-15 82 -107 159 -205 77 -98 163 -212 192 -254 29 -41 56 -79 60 -85 21 -25
127 -192 195 -305 194 -321 335 -616 437 -913 36 -104 86 -274 96 -325 1 -9 8
-35 13 -57 6 -22 13 -57 16 -79 4 -21 8 -41 10 -45 2 -3 7 -35 11 -71 4 -36 8
-67 10 -70 2 -3 7 -43 11 -90 16 -157 10 -551 -10 -645 -2 -11 -7 -42 -10 -70
-4 -27 -11 -68 -16 -90 -16 -68 -14 -72 43 -91 81 -27 187 -24 365 10 39 7 72
12 72 10 0 -10 -136 -93 -285 -172 -207 -110 -235 -125 -235 -133 0 -10 67
-96 179 -229 58 -69 213 -233 346 -365 236 -236 287 -285 434 -415 41 -36 79
-70 85 -75 6 -6 45 -39 86 -75 41 -36 77 -67 80 -70 6 -6 142 -124 180 -156
327 -279 362 -316 389 -419 61 -234 -2 -356 -264 -513 -60 -36 -119 -70 -130
-76 -41 -22 -141 -96 -175 -128 -72 -68 -90 -96 -83 -131 9 -52 51 -165 74
-205 88 -149 117 -182 416 -478 l275 -271 -6 -36 c-8 -47 -45 -153 -84 -237
-16 -36 -33 -76 -37 -90 -4 -14 -11 -29 -15 -35 -13 -16 -40 -115 -32 -115 4
0 47 -36 95 -81 138 -128 217 -256 211 -340 -5 -60 -44 -161 -89 -229 -54 -80
-124 -152 -285 -294 -204 -179 -269 -250 -328 -356 -76 -137 -76 -247 3 -640
5 -25 22 -122 30 -169 25 -146 25 -348 2 -439 -23 -87 -64 -166 -115 -223 -43
-49 -341 -255 -465 -323 -132 -73 -272 -121 -345 -118 l-34 1 7 -57 c5 -49 27
-201 40 -282 2 -14 9 -61 15 -105 14 -101 19 -134 25 -165 2 -14 7 -47 10 -75
3 -27 8 -63 11 -80 3 -16 7 -42 8 -57 4 -35 32 -78 51 -78 9 0 20 -11 25 -25
19 -50 30 -52 510 -49 245 1 453 2 463 3 23 1 127 105 128 128 1 10 3 28 4 41
1 12 5 56 9 96 4 40 8 82 11 94 2 11 7 52 10 89 4 37 8 75 10 83 4 15 10 65
20 167 2 29 7 65 9 80 2 16 7 55 11 88 3 33 8 74 10 90 2 17 7 53 10 80 3 28
8 64 10 80 2 17 7 53 10 80 3 28 10 84 15 125 11 93 18 149 25 220 3 30 8 66
10 80 2 14 7 50 10 80 3 30 7 71 10 90 2 19 7 55 10 80 3 25 7 61 10 80 2 19
7 60 10 90 4 30 8 66 10 80 2 14 7 54 10 90 4 36 8 72 10 80 2 9 6 46 9 82 4
37 8 75 10 85 2 10 7 45 10 78 4 33 11 94 16 135 5 41 12 98 15 125 3 28 7 64
9 80 2 17 7 55 10 85 4 30 9 71 11 90 2 19 6 53 9 75 3 22 8 65 11 95 4 30 8
66 10 80 3 14 7 52 10 85 3 33 7 69 9 80 2 11 7 49 11 85 3 36 8 76 10 90 2
14 7 48 10 75 3 28 7 66 10 85 2 19 9 76 15 125 5 50 12 108 15 130 3 22 7 63
10 90 3 28 12 104 20 170 8 66 18 140 21 165 3 25 7 65 10 90 2 25 6 59 9 75
2 17 7 57 10 90 3 33 8 71 10 85 3 14 7 50 10 80 3 30 8 66 10 80 2 14 7 52
10 85 3 33 7 69 9 80 2 11 7 51 11 89 4 38 9 79 11 90 2 12 6 44 8 71 7 66 18
156 22 177 1 9 6 48 9 85 4 37 9 77 11 88 2 11 6 47 9 80 3 33 7 71 10 85 2
14 7 50 10 80 3 30 8 66 10 80 2 14 7 54 10 90 4 36 8 72 10 80 1 8 6 44 10
80 3 36 8 76 10 90 2 14 6 50 10 80 15 135 26 230 30 260 2 14 7 57 11 95 3
39 8 72 9 75 2 3 6 39 10 80 4 41 8 77 10 80 2 3 6 43 10 90 4 47 8 87 10 90
2 3 6 39 10 80 3 41 8 82 10 90 2 8 7 40 10 70 5 55 11 105 20 170 3 19 7 60
10 90 3 30 8 66 10 80 2 14 7 54 10 90 4 36 8 72 10 80 2 8 6 44 10 80 3 36 8
76 10 90 2 14 7 50 10 80 9 84 36 312 40 336 1 11 6 52 10 90 4 38 9 76 10 84
2 8 6 47 10 85 4 39 9 79 11 90 2 11 7 48 9 81 3 34 7 70 9 80 3 17 15 110 21
174 2 14 6 45 9 70 6 45 12 93 22 180 2 25 7 61 10 81 8 63 13 102 19 164 3
33 7 69 9 80 2 11 7 54 11 95 4 41 8 77 10 80 2 3 6 39 10 80 4 41 8 82 10 90
2 8 6 44 10 80 4 36 8 72 10 80 1 8 6 47 9 85 4 39 9 77 11 85 2 8 6 47 10 85
3 39 8 77 10 85 2 8 6 44 10 80 3 36 7 76 9 90 2 14 7 52 11 85 6 59 10 86 19
155 2 19 7 62 11 95 4 33 8 71 11 84 2 14 6 52 9 85 4 34 8 72 10 86 2 14 7
52 10 85 3 33 8 71 10 85 2 14 7 50 10 80 7 64 8 73 34 285 6 44 13 105 16
135 3 30 8 71 10 90 5 37 9 75 21 175 3 33 8 69 10 80 2 11 6 45 9 75 3 30 7
71 10 90 8 61 30 246 40 335 3 22 7 56 10 75 3 19 7 60 10 90 3 30 8 66 10 80
2 14 6 52 10 85 3 33 7 71 10 85 2 14 7 52 10 85 3 33 8 74 10 90 2 17 6 50 9
75 7 61 36 298 41 335 2 17 7 55 10 85 3 30 8 73 11 95 6 42 7 55 18 170 4 39
9 77 11 85 2 8 6 40 10 70 3 30 8 71 10 90 3 19 7 61 11 93 3 32 7 66 9 75 1
9 6 46 9 82 15 142 18 164 32 203 18 50 72 148 90 162 7 5 17 36 23 68 6 32
18 75 27 95 11 23 178 198 445 467 235 237 441 452 458 479 30 48 31 54 31
163 0 83 -3 113 -12 115 -7 1 -747 2 -1644 3 l-1632 2 0 -116 0 -115 376 -375
c428 -429 489 -501 498 -591 2 -20 10 -66 17 -101 14 -71 14 -65 3 -131 -4
-27 -11 -48 -17 -48 -5 0 -8 -3 -7 -7 2 -8 -12 -155 -17 -183 -1 -8 -6 -46 -9
-85 -4 -38 -9 -81 -11 -95 -2 -14 -6 -50 -10 -80 -3 -30 -10 -89 -15 -130 -5
-41 -11 -97 -14 -125 -3 -27 -12 -111 -21 -185 -8 -74 -17 -157 -20 -185 -3
-27 -8 -66 -10 -85 -2 -19 -7 -60 -10 -90 -3 -30 -8 -71 -10 -90 -2 -19 -7
-60 -10 -90 -3 -30 -8 -71 -10 -90 -8 -59 -14 -112 -20 -175 -3 -33 -8 -71
-10 -85 -2 -14 -6 -54 -10 -90 -4 -36 -8 -76 -10 -90 -2 -14 -9 -72 -15 -130
-6 -58 -13 -116 -15 -130 -2 -14 -6 -54 -10 -90 -4 -36 -8 -76 -10 -90 -3 -14
-7 -54 -10 -90 -3 -36 -7 -72 -10 -80 -2 -8 -7 -49 -10 -90 -4 -41 -8 -82 -10
-90 -2 -8 -6 -46 -9 -85 -4 -38 -9 -81 -11 -95 -2 -14 -6 -52 -10 -85 -3 -33
-8 -73 -10 -90 -2 -16 -7 -57 -10 -90 -4 -33 -8 -73 -10 -90 -2 -16 -6 -55
-10 -85 -7 -68 -14 -124 -20 -170 -2 -19 -7 -60 -10 -90 -3 -30 -8 -71 -10
-90 -2 -19 -7 -60 -10 -90 -3 -30 -8 -71 -10 -90 -2 -19 -7 -60 -10 -90 -3
-30 -10 -89 -15 -130 -5 -41 -12 -104 -16 -140 -3 -36 -7 -72 -9 -80 -2 -8 -6
-49 -10 -90 -4 -41 -9 -83 -10 -92 -2 -9 -6 -45 -10 -80 -3 -35 -8 -76 -10
-93 -2 -16 -9 -75 -15 -130 -6 -55 -13 -116 -15 -135 -2 -19 -7 -60 -10 -90
-7 -62 -13 -118 -20 -170 -2 -19 -7 -59 -10 -87 -8 -87 -16 -156 -20 -183 -3
-22 -12 -103 -21 -185 -4 -31 -8 -68 -18 -165 -4 -30 -8 -66 -11 -80 -2 -14
-7 -56 -10 -95 -3 -38 -8 -83 -10 -100 -7 -54 -15 -125 -30 -265 -3 -30 -8
-68 -10 -85 -5 -37 -12 -100 -20 -180 -4 -33 -8 -72 -11 -87 -2 -15 -6 -49 -9
-75 -11 -107 -15 -150 -20 -183 -3 -19 -7 -57 -10 -85 -3 -27 -7 -66 -9 -85
-3 -19 -7 -64 -11 -100 -3 -36 -8 -72 -10 -80 -2 -8 -7 -49 -10 -90 -4 -41 -9
-83 -11 -94 -2 -10 -6 -51 -10 -90 -3 -39 -10 -75 -14 -80 -16 -16 -28 4 -35
61 -4 32 -9 67 -10 78 -2 11 -6 38 -9 60 -4 22 -9 60 -12 85 -3 25 -7 52 -9
60 -2 8 -7 35 -10 60 -3 25 -10 72 -15 105 -5 33 -12 78 -15 100 -4 22 -8 51
-10 65 -3 14 -7 45 -10 70 -3 25 -7 56 -10 70 -3 14 -7 45 -10 70 -3 25 -8 54
-10 66 -3 12 -9 52 -14 90 -6 38 -13 85 -15 104 -3 19 -23 157 -45 305 -22
149 -43 290 -47 315 -3 25 -8 54 -9 65 -9 62 -17 116 -25 165 -5 30 -12 78
-15 105 -4 28 -8 57 -10 65 -2 8 -7 35 -10 60 -6 53 -16 117 -21 145 -2 11 -6
40 -9 65 -3 25 -7 56 -10 70 -6 30 -12 69 -20 130 -8 56 -34 236 -40 270 -2
14 -7 45 -10 70 -5 39 -16 112 -30 200 -2 14 -9 61 -15 105 -7 44 -13 87 -15
95 -2 8 -6 38 -9 65 -8 59 -14 97 -27 185 -5 36 -12 76 -14 90 -2 14 -8 57
-14 95 -6 39 -13 87 -16 108 -11 82 -16 116 -31 212 -8 55 -17 116 -20 135 -2
19 -6 46 -9 60 -5 25 -8 46 -20 133 -4 27 -8 56 -10 65 -1 10 -6 40 -9 67 -6
45 -38 259 -52 345 -3 19 -7 48 -9 63 -11 74 -22 150 -30 202 -3 22 -8 54 -10
70 -15 101 -46 314 -50 335 -2 14 -7 45 -10 70 -5 40 -19 129 -30 200 -2 14
-11 76 -20 138 -9 62 -18 121 -20 131 -2 10 -6 42 -10 72 -3 30 -8 61 -10 69
-2 8 -6 35 -9 60 -3 25 -7 54 -10 65 -2 11 -7 45 -11 75 -4 30 -8 62 -10 70
-1 8 -6 37 -9 63 -4 27 -9 59 -12 70 -2 12 -6 42 -9 67 -3 25 -10 70 -15 100
-5 30 -12 78 -15 105 -4 28 -8 57 -10 65 -2 8 -6 34 -9 58 -11 78 -16 118 -20
138 -2 12 -7 45 -11 75 -4 30 -8 56 -10 59 -1 3 -6 32 -9 65 -4 33 -14 101
-22 150 -22 126 -18 296 8 365 5 14 25 48 44 77 19 28 34 54 34 58 0 20 141
180 215 244 32 27 161 142 209 186 6 6 65 57 131 115 66 58 138 122 160 142
22 21 43 38 48 38 4 0 7 8 7 19 0 10 15 37 34 61 l33 42 2 127 1 128 -1863 0
-1863 0 -37 -38z"/>
<path d="M8046 6970 c-89 -95 -163 -207 -193 -295 -17 -51 -22 -166 -9 -220
16 -65 117 -232 166 -273 8 -6 47 -28 86 -48 124 -62 183 -51 367 73 131 89
387 302 381 318 -13 32 -58 49 -124 48 -95 -2 -142 -32 -220 -138 -77 -105
-109 -127 -210 -140 -144 -20 -185 -9 -224 57 -89 152 -70 403 49 649 14 29
23 54 21 56 -2 2 -42 -37 -90 -87z"/>
<path d="M8991 5238 c-61 -76 -205 -212 -302 -285 -80 -60 -342 -233 -353
-233 -2 0 -66 -37 -142 -82 -77 -44 -148 -86 -159 -92 -47 -25 -194 -121 -195
-127 0 -9 48 -29 87 -35 59 -9 371 69 458 115 123 66 178 112 415 351 172 173
270 249 377 291 49 20 77 23 180 24 l122 0 -5 30 c-3 17 -7 36 -8 44 -3 15
-13 17 -166 25 -58 3 -143 8 -190 12 l-85 6 -34 -44z"/>
<path d="M9171 4704 c-292 -176 -737 -374 -919 -410 -13 -3 -38 -10 -54 -17
l-30 -12 58 -24 c33 -14 82 -34 109 -47 28 -12 93 -41 145 -64 52 -23 109 -48
125 -55 44 -19 149 -60 230 -88 87 -31 162 -46 255 -50 83 -5 169 11 217 39
39 22 43 28 31 42 -26 33 -40 39 -67 30 -21 -8 -58 0 -180 36 -84 25 -165 48
-180 51 -48 9 -392 104 -408 114 -13 7 32 32 193 110 115 56 241 118 279 138
98 50 252 151 274 178 18 24 22 67 5 71 -5 1 -42 -18 -83 -42z"/>
</g>
</svg>
